v 0.0000 0.0000 6.0000
v 0.0000 0.0000 -6.0000
v 23.0000 13.0000 -6.0000
v 22.8079 14.9509 -6.0000
v 22.2388 16.8268 -6.0000
v 21.3147 18.5557 -6.0000
v 20.0711 20.0711 -6.0000
v 18.5557 21.3147 -6.0000
v 16.8268 22.2388 -6.0000
v 14.9509 22.8079 -6.0000
v 13.0000 23.0000 -6.0000
v -13.0000 23.0000 -6.0000
v -14.9509 22.8079 -6.0000
v -16.8268 22.2388 -6.0000
v -18.5557 21.3147 -6.0000
v -20.0711 20.0711 -6.0000
v -21.3147 18.5557 -6.0000
v -22.2388 16.8268 -6.0000
v -22.8079 14.9509 -6.0000
v -23.0000 13.0000 -6.0000
v -23.0000 -13.0000 -6.0000
v -22.8079 -14.9509 -6.0000
v -22.2388 -16.8268 -6.0000
v -21.3147 -18.5557 -6.0000
v -20.0711 -20.0711 -6.0000
v -18.5557 -21.3147 -6.0000
v -16.8268 -22.2388 -6.0000
v -14.9509 -22.8079 -6.0000
v -13.0000 -23.0000 -6.0000
v 13.0000 -23.0000 -6.0000
v 14.9509 -22.8079 -6.0000
v 16.8268 -22.2388 -6.0000
v 18.5557 -21.3147 -6.0000
v 20.0711 -20.0711 -6.0000
v 21.3147 -18.5557 -6.0000
v 22.2388 -16.8268 -6.0000
v 22.8079 -14.9509 -6.0000
v 23.0000 -13.0000 -6.0000
v 25.0000 13.0000 -4.0000
v 24.7694 15.3411 -4.0000
v 24.0866 17.5922 -4.0000
v 22.9776 19.6668 -4.0000
v 21.4853 21.4853 -4.0000
v 19.6668 22.9776 -4.0000
v 17.5922 24.0866 -4.0000
v 15.3411 24.7694 -4.0000
v 13.0000 25.0000 -4.0000
v -13.0000 25.0000 -4.0000
v -15.3411 24.7694 -4.0000
v -17.5922 24.0866 -4.0000
v -19.6668 22.9776 -4.0000
v -21.4853 21.4853 -4.0000
v -22.9776 19.6668 -4.0000
v -24.0866 17.5922 -4.0000
v -24.7694 15.3411 -4.0000
v -25.0000 13.0000 -4.0000
v -25.0000 -13.0000 -4.0000
v -24.7694 -15.3411 -4.0000
v -24.0866 -17.5922 -4.0000
v -22.9776 -19.6668 -4.0000
v -21.4853 -21.4853 -4.0000
v -19.6668 -22.9776 -4.0000
v -17.5922 -24.0866 -4.0000
v -15.3411 -24.7694 -4.0000
v -13.0000 -25.0000 -4.0000
v 13.0000 -25.0000 -4.0000
v 15.3411 -24.7694 -4.0000
v 17.5922 -24.0866 -4.0000
v 19.6668 -22.9776 -4.0000
v 21.4853 -21.4853 -4.0000
v 22.9776 -19.6668 -4.0000
v 24.0866 -17.5922 -4.0000
v 24.7694 -15.3411 -4.0000
v 25.0000 -13.0000 -4.0000
v 25.0000 13.0000 4.0000
v 24.7694 15.3411 4.0000
v 24.0866 17.5922 4.0000
v 22.9776 19.6668 4.0000
v 21.4853 21.4853 4.0000
v 19.6668 22.9776 4.0000
v 17.5922 24.0866 4.0000
v 15.3411 24.7694 4.0000
v 13.0000 25.0000 4.0000
v -13.0000 25.0000 4.0000
v -15.3411 24.7694 4.0000
v -17.5922 24.0866 4.0000
v -19.6668 22.9776 4.0000
v -21.4853 21.4853 4.0000
v -22.9776 19.6668 4.0000
v -24.0866 17.5922 4.0000
v -24.7694 15.3411 4.0000
v -25.0000 13.0000 4.0000
v -25.0000 -13.0000 4.0000
v -24.7694 -15.3411 4.0000
v -24.0866 -17.5922 4.0000
v -22.9776 -19.6668 4.0000
v -21.4853 -21.4853 4.0000
v -19.6668 -22.9776 4.0000
v -17.5922 -24.0866 4.0000
v -15.3411 -24.7694 4.0000
v -13.0000 -25.0000 4.0000
v 13.0000 -25.0000 4.0000
v 15.3411 -24.7694 4.0000
v 17.5922 -24.0866 4.0000
v 19.6668 -22.9776 4.0000
v 21.4853 -21.4853 4.0000
v 22.9776 -19.6668 4.0000
v 24.0866 -17.5922 4.0000
v 24.7694 -15.3411 4.0000
v 25.0000 -13.0000 4.0000
v 23.0000 13.0000 6.0000
v 22.8079 14.9509 6.0000
v 22.2388 16.8268 6.0000
v 21.3147 18.5557 6.0000
v 20.0711 20.0711 6.0000
v 18.5557 21.3147 6.0000
v 16.8268 22.2388 6.0000
v 14.9509 22.8079 6.0000
v 13.0000 23.0000 6.0000
v -13.0000 23.0000 6.0000
v -14.9509 22.8079 6.0000
v -16.8268 22.2388 6.0000
v -18.5557 21.3147 6.0000
v -20.0711 20.0711 6.0000
v -21.3147 18.5557 6.0000
v -22.2388 16.8268 6.0000
v -22.8079 14.9509 6.0000
v -23.0000 13.0000 6.0000
v -23.0000 -13.0000 6.0000
v -22.8079 -14.9509 6.0000
v -22.2388 -16.8268 6.0000
v -21.3147 -18.5557 6.0000
v -20.0711 -20.0711 6.0000
v -18.5557 -21.3147 6.0000
v -16.8268 -22.2388 6.0000
v -14.9509 -22.8079 6.0000
v -13.0000 -23.0000 6.0000
v 13.0000 -23.0000 6.0000
v 14.9509 -22.8079 6.0000
v 16.8268 -22.2388 6.0000
v 18.5557 -21.3147 6.0000
v 20.0711 -20.0711 6.0000
v 21.3147 -18.5557 6.0000
v 22.2388 -16.8268 6.0000
v 22.8079 -14.9509 6.0000
v 23.0000 -13.0000 6.0000
f 1 111 112
f 1 112 113
f 1 113 114
f 1 114 115
f 1 115 116
f 1 116 117
f 1 117 118
f 1 118 119
f 1 119 120
f 1 120 121
f 1 121 122
f 1 122 123
f 1 123 124
f 1 124 125
f 1 125 126
f 1 126 127
f 1 127 128
f 1 128 129
f 1 129 130
f 1 130 131
f 1 131 132
f 1 132 133
f 1 133 134
f 1 134 135
f 1 135 136
f 1 136 137
f 1 137 138
f 1 138 139
f 1 139 140
f 1 140 141
f 1 141 142
f 1 142 143
f 1 143 144
f 1 144 145
f 1 145 146
f 1 146 111
f 2 4 3
f 2 5 4
f 2 6 5
f 2 7 6
f 2 8 7
f 2 9 8
f 2 10 9
f 2 11 10
f 2 12 11
f 2 13 12
f 2 14 13
f 2 15 14
f 2 16 15
f 2 17 16
f 2 18 17
f 2 19 18
f 2 20 19
f 2 21 20
f 2 22 21
f 2 23 22
f 2 24 23
f 2 25 24
f 2 26 25
f 2 27 26
f 2 28 27
f 2 29 28
f 2 30 29
f 2 31 30
f 2 32 31
f 2 33 32
f 2 34 33
f 2 35 34
f 2 36 35
f 2 37 36
f 2 38 37
f 2 3 38
f 3 4 40
f 3 40 39
f 4 5 41
f 4 41 40
f 5 6 42
f 5 42 41
f 6 7 43
f 6 43 42
f 7 8 44
f 7 44 43
f 8 9 45
f 8 45 44
f 9 10 46
f 9 46 45
f 10 11 47
f 10 47 46
f 11 12 48
f 11 48 47
f 12 13 49
f 12 49 48
f 13 14 50
f 13 50 49
f 14 15 51
f 14 51 50
f 15 16 52
f 15 52 51
f 16 17 53
f 16 53 52
f 17 18 54
f 17 54 53
f 18 19 55
f 18 55 54
f 19 20 56
f 19 56 55
f 20 21 57
f 20 57 56
f 21 22 58
f 21 58 57
f 22 23 59
f 22 59 58
f 23 24 60
f 23 60 59
f 24 25 61
f 24 61 60
f 25 26 62
f 25 62 61
f 26 27 63
f 26 63 62
f 27 28 64
f 27 64 63
f 28 29 65
f 28 65 64
f 29 30 66
f 29 66 65
f 30 31 67
f 30 67 66
f 31 32 68
f 31 68 67
f 32 33 69
f 32 69 68
f 33 34 70
f 33 70 69
f 34 35 71
f 34 71 70
f 35 36 72
f 35 72 71
f 36 37 73
f 36 73 72
f 37 38 74
f 37 74 73
f 38 3 39
f 38 39 74
f 39 40 76
f 39 76 75
f 40 41 77
f 40 77 76
f 41 42 78
f 41 78 77
f 42 43 79
f 42 79 78
f 43 44 80
f 43 80 79
f 44 45 81
f 44 81 80
f 45 46 82
f 45 82 81
f 46 47 83
f 46 83 82
f 47 48 84
f 47 84 83
f 48 49 85
f 48 85 84
f 49 50 86
f 49 86 85
f 50 51 87
f 50 87 86
f 51 52 88
f 51 88 87
f 52 53 89
f 52 89 88
f 53 54 90
f 53 90 89
f 54 55 91
f 54 91 90
f 55 56 92
f 55 92 91
f 56 57 93
f 56 93 92
f 57 58 94
f 57 94 93
f 58 59 95
f 58 95 94
f 59 60 96
f 59 96 95
f 60 61 97
f 60 97 96
f 61 62 98
f 61 98 97
f 62 63 99
f 62 99 98
f 63 64 100
f 63 100 99
f 64 65 101
f 64 101 100
f 65 66 102
f 65 102 101
f 66 67 103
f 66 103 102
f 67 68 104
f 67 104 103
f 68 69 105
f 68 105 104
f 69 70 106
f 69 106 105
f 70 71 107
f 70 107 106
f 71 72 108
f 71 108 107
f 72 73 109
f 72 109 108
f 73 74 110
f 73 110 109
f 74 39 75
f 74 75 110
f 75 76 112
f 75 112 111
f 76 77 113
f 76 113 112
f 77 78 114
f 77 114 113
f 78 79 115
f 78 115 114
f 79 80 116
f 79 116 115
f 80 81 117
f 80 117 116
f 81 82 118
f 81 118 117
f 82 83 119
f 82 119 118
f 83 84 120
f 83 120 119
f 84 85 121
f 84 121 120
f 85 86 122
f 85 122 121
f 86 87 123
f 86 123 122
f 87 88 124
f 87 124 123
f 88 89 125
f 88 125 124
f 89 90 126
f 89 126 125
f 90 91 127
f 90 127 126
f 91 92 128
f 91 128 127
f 92 93 129
f 92 129 128
f 93 94 130
f 93 130 129
f 94 95 131
f 94 131 130
f 95 96 132
f 95 132 131
f 96 97 133
f 96 133 132
f 97 98 134
f 97 134 133
f 98 99 135
f 98 135 134
f 99 100 136
f 99 136 135
f 100 101 137
f 100 137 136
f 101 102 138
f 101 138 137
f 102 103 139
f 102 139 138
f 103 104 140
f 103 140 139
f 104 105 141
f 104 141 140
f 105 106 142
f 105 142 141
f 106 107 143
f 106 143 142
f 107 108 144
f 107 144 143
f 108 109 145
f 108 145 144
f 109 110 146
f 109 146 145
f 110 75 111
f 110 111 146
